<svg xmlns="http://www.w3.org/2000/svg" enable-background="new 0 0 512 512" viewBox="0 0 512 512" id="file">
  <path fill="currentColor" d="M329.7,196.5h88.2c8.6,0,15.6-7,15.6-15.6c0-8.6-7-15.6-15.6-15.6h-88.2c-8.6,0-15.6,7-15.6,15.6
		C314.1,189.5,321.1,196.5,329.7,196.5z"></path>
  <path fill="currentColor" d="M506.5,104.9c-3.7-3.6-8.6-5.7-13.8-5.7H228.3l-43-45.4c-3.7-3.9-8.7-6.1-14-6.1L19.8,46.6
		c-4.9,0.1-10.2,2-13.9,5.6C2.2,55.8,0.1,60.8,0.1,66L0,416.3c0,5.2,2,10.1,5.7,13.8c3.7,3.6,8.6,5.7,13.8,5.7h472.9
		c10.7,0,19.4-8.8,19.6-19.5l0.2-297.6C512.2,113.5,510.1,108.5,506.5,104.9z M472.9,396.8h-434L39,85.7l123.7,0.8l43,45.5
		c3.6,3.9,8.8,6.1,14.1,6.1H473L472.9,396.8z"></path>
</svg>