<svg xmlns="http://www.w3.org/2000/svg" width="24" height="24" fill="none" viewBox="0 0 24 24" id="inbox">
  <path fill="#111" fill-rule="evenodd" d="M6.60245 13.8644C6.38869 13.766 6.13407 13.75 5.16026 13.75H2C1.58579 13.75 1.25 13.4142 1.25 13C1.25 12.5858 1.58579 12.25 2 12.25H5.16026C5.20556 12.25 5.25031 12.25 5.29454 12.2499C6.06705 12.2491 6.67886 12.2485 7.22924 12.5016C7.77961 12.7547 8.17729 13.2197 8.67941 13.8067C8.70816 13.8403 8.73725 13.8743 8.76673 13.9087L9.37216 14.6151C10.0059 15.3544 10.1838 15.5373 10.3975 15.6356C10.6113 15.734 10.8659 15.75 11.8397 15.75H12.1603C13.1341 15.75 13.3887 15.734 13.6025 15.6356C13.8162 15.5373 13.9941 15.3544 14.6278 14.6151L15.2333 13.9087C15.2628 13.8743 15.2918 13.8403 15.3206 13.8067C15.8227 13.2197 16.2204 12.7547 16.7708 12.5016C17.3211 12.2485 17.933 12.2491 18.7055 12.2499C18.7497 12.25 18.7944 12.25 18.8397 12.25H22C22.4142 12.25 22.75 12.5858 22.75 13C22.75 13.4142 22.4142 13.75 22 13.75H18.8397C17.8659 13.75 17.6113 13.766 17.3975 13.8644C17.1838 13.9627 17.0059 14.1456 16.3722 14.8849L15.7667 15.5913C15.7372 15.6257 15.7082 15.6597 15.6794 15.6933C15.1773 16.2803 14.7796 16.7453 14.2292 16.9984C13.6789 17.2515 13.067 17.2509 12.2945 17.2501C12.2503 17.25 12.2056 17.25 12.1603 17.25H11.8397C11.7944 17.25 11.7497 17.25 11.7055 17.2501C10.933 17.2509 10.3211 17.2515 9.77076 16.9984C9.22039 16.7453 8.82271 16.2803 8.32058 15.6933C8.29184 15.6597 8.26275 15.6257 8.23327 15.5913L7.62784 14.8849C6.9941 14.1456 6.81622 13.9627 6.60245 13.8644Z" clip-rule="evenodd"></path>
  <path fill="#111" fill-rule="evenodd" d="M11.9426 1.25H12.0574C14.3658 1.24999 16.1748 1.24998 17.5863 1.43975C19.031 1.63399 20.1711 2.03933 21.0659 2.93414C22.2536 4.12187 22.5836 5.74802 22.694 7.96266C22.7146 8.37636 22.3959 8.72845 21.9822 8.74907C21.5685 8.76969 21.2164 8.45104 21.1958 8.03734C21.0875 5.86509 20.765 4.75455 20.0052 3.9948C19.4355 3.42514 18.6648 3.09825 17.3864 2.92637C16.0864 2.75159 14.3782 2.75 12 2.75C9.62177 2.75 7.91356 2.75159 6.61358 2.92637C5.33517 3.09825 4.56445 3.42514 3.9948 3.9948C3.42514 4.56445 3.09825 5.33517 2.92637 6.61358C2.75159 7.91356 2.75 9.62177 2.75 12C2.75 14.3782 2.75159 16.0864 2.92637 17.3864C3.09825 18.6648 3.42514 19.4355 3.9948 20.0052C4.56445 20.5749 5.33517 20.9018 6.61358 21.0736C7.91356 21.2484 9.62177 21.25 12 21.25C14.3782 21.25 16.0864 21.2484 17.3864 21.0736C18.6648 20.9018 19.4355 20.5749 20.0052 20.0052C20.5749 19.4355 20.9018 18.6648 21.0736 17.3864C21.2484 16.0864 21.25 14.3782 21.25 12C21.25 11.5858 21.5858 11.25 22 11.25C22.4142 11.25 22.75 11.5858 22.75 12V12.0574C22.75 14.3658 22.75 16.1748 22.5603 17.5863C22.366 19.031 21.9607 20.1711 21.0659 21.0659C20.1711 21.9607 19.031 22.366 17.5863 22.5603C16.1748 22.75 14.3658 22.75 12.0574 22.75H11.9426C9.63423 22.75 7.82519 22.75 6.41371 22.5603C4.96897 22.366 3.82895 21.9607 2.93414 21.0659C2.03933 20.1711 1.63399 19.031 1.43975 17.5863C1.24998 16.1748 1.24999 14.3658 1.25 12.0574V11.9426C1.24999 9.63423 1.24998 7.82519 1.43975 6.41371C1.63399 4.96897 2.03933 3.82895 2.93414 2.93414C3.82895 2.03933 4.96897 1.63399 6.41371 1.43975C7.82519 1.24998 9.63423 1.24999 11.9426 1.25Z" clip-rule="evenodd"></path>
</svg>