<svg xmlns="http://www.w3.org/2000/svg" viewBox="0 0 25 25" id="tower">
  <g>
    <path d="M16.55,23H8.45a1.45,1.45,0,0,1,0-2.9h8.1a1.45,1.45,0,0,1,0,2.9Zm-8.1-1.9a.45.45,0,0,0,0,.9h8.1a.45.45,0,0,0,0-.9Z"></path>
    <path d="M9.31 21H9.17c-.27-.08-.45-.27-.37-.53l2.56-8.76c.08-.26.36-.25.63-.17s.41.18.33.45L9.76 20.74C9.7 21 9.52 21 9.31 21zM15.76 20.94c-.21 0-.46 0-.52-.2L12.68 12c-.08-.27.1-.41.37-.49s.51-.05.59.21l2.56 8.76c.08.26 0 .38-.3.45A.32.32 0 0115.76 20.94z"></path>
    <path d="M12.5,12.43a3.09,3.09,0,0,1-.8-.11,2.85,2.85,0,1,1,1.6,0A3.09,3.09,0,0,1,12.5,12.43Zm0-4.69a2,2,0,0,0-.52.07,1.85,1.85,0,0,0,0,3.55,2,2,0,0,0,1,0,1.85,1.85,0,0,0,1.33-1.78A1.82,1.82,0,0,0,13,7.82,1.85,1.85,0,0,0,12.5,7.74Z"></path>
    <path d="M9.28 13.8l-.14 0a4.37 4.37 0 010-8.39.49.49 0 01.62.34.5.5 0 01-.34.62 3.37 3.37 0 000 6.47.5.5 0 01.34.62A.49.49 0 019.28 13.8zM15.9 13.8a.5.5 0 01-.13-1 3.37 3.37 0 000-6.47.5.5 0 01.28-1 4.37 4.37 0 010 8.39z"></path>
    <path d="M8.53 16.85l-.14 0a7.55 7.55 0 010-14.5.5.5 0 01.28 1 6.55 6.55 0 000 12.58.5.5 0 01.34.62A.49.49 0 018.53 16.85zM16.47 16.85a.49.49 0 01-.48-.36.5.5 0 01.34-.62 6.55 6.55 0 000-12.58.5.5 0 11.28-1 7.55 7.55 0 010 14.5z"></path>
  </g>
</svg>